<svg width="70" height="70" viewBox="0 0 70 70" fill="none" xmlns="http://www.w3.org/2000/svg">
<path d="M35 4.66666C33.6 4.66666 33.1334 5.59999 32.2 6.53332L5.13335 50.8667C4.66669 51.3333 4.66669 52.2667 4.66669 52.7333C4.66669 55.0667 6.53335 56 7.93335 56H62.0667C63.9334 56 65.3334 55.0667 65.3334 52.7333C65.3334 51.8 65.3334 51.8 64.8667 50.8667L38.2667 6.53332C37.3334 5.59999 36.4 4.66666 35 4.66666ZM35 11.6667L50.4 37.3333H46.6667L39.6667 30.3333L35 37.3333L30.3334 30.3333L23.3334 37.3333H19.1334L35 11.6667Z" fill="#003864"/>
</svg>
