<svg width="238" height="39" viewBox="0 0 238 39" fill="none" xmlns="http://www.w3.org/2000/svg">
<path d="M6.88141 16L2.35895 2.88379H2.26227C2.28375 3.17741 2.30882 3.57845 2.33746 4.08691C2.36611 4.59538 2.39117 5.13965 2.41266 5.71973C2.43414 6.2998 2.44489 6.85482 2.44489 7.38477V16H0.103088V0.294922H3.72321L8.07379 12.8311H8.13824L12.6392 0.294922H16.2486V16H13.7886V7.25586C13.7886 6.77604 13.7958 6.25684 13.8101 5.69824C13.8316 5.13965 13.8531 4.6097 13.8746 4.1084C13.9032 3.6071 13.9247 3.20605 13.939 2.90527H13.8531L9.15875 16H6.88141ZM37.4077 8.12598C37.4077 9.33626 37.2537 10.4391 36.9458 11.4346C36.645 12.4229 36.1902 13.2751 35.5815 13.9912C34.9728 14.7002 34.2101 15.248 33.2934 15.6348C32.3768 16.0215 31.3026 16.2148 30.0708 16.2148C28.8175 16.2148 27.729 16.0215 26.8052 15.6348C25.8885 15.248 25.1258 14.6966 24.5171 13.9805C23.9155 13.2643 23.4643 12.4085 23.1636 11.4131C22.8628 10.4176 22.7124 9.31478 22.7124 8.10449C22.7124 6.486 22.9774 5.0752 23.5073 3.87207C24.0444 2.66178 24.8572 1.72363 25.9458 1.05762C27.0415 0.38444 28.4236 0.0478516 30.0923 0.0478516C31.7251 0.0478516 33.0822 0.380859 34.1636 1.04688C35.2449 1.71289 36.0542 2.65104 36.5913 3.86133C37.1356 5.06445 37.4077 6.486 37.4077 8.12598ZM25.4194 8.12598C25.4194 9.33626 25.5841 10.3854 25.9136 11.2734C26.243 12.1543 26.7479 12.8346 27.4282 13.3145C28.1157 13.7871 28.9966 14.0234 30.0708 14.0234C31.1522 14.0234 32.033 13.7871 32.7134 13.3145C33.3937 12.8346 33.895 12.1543 34.2173 11.2734C34.5395 10.3854 34.7007 9.33626 34.7007 8.12598C34.7007 6.28548 34.3319 4.84603 33.5942 3.80762C32.8638 2.76204 31.6964 2.23926 30.0923 2.23926C29.018 2.23926 28.1336 2.47559 27.4389 2.94824C26.7514 3.4209 26.243 4.09766 25.9136 4.97852C25.5841 5.85221 25.4194 6.90137 25.4194 8.12598ZM56.1928 0.294922V10.457C56.1928 11.5527 55.96 12.5339 55.4945 13.4004C55.0362 14.2669 54.3415 14.9544 53.4105 15.4629C52.4796 15.9642 51.3087 16.2148 49.8979 16.2148C47.8855 16.2148 46.3529 15.6885 45.3002 14.6357C44.2546 13.5758 43.7318 12.1686 43.7318 10.4141V0.294922H46.31V10.1885C46.31 11.499 46.6179 12.4658 47.2338 13.0889C47.8497 13.7119 48.7699 14.0234 49.9945 14.0234C50.8396 14.0234 51.5271 13.8766 52.057 13.583C52.5941 13.2822 52.988 12.8454 53.2387 12.2725C53.4965 11.6924 53.6254 10.9941 53.6254 10.1777V0.294922H56.1928ZM76.3958 16H73.2269L65.5355 3.46387H65.4388C65.4674 3.88639 65.4925 4.33398 65.514 4.80664C65.5426 5.2793 65.5641 5.76628 65.5784 6.26758C65.5999 6.76888 65.6178 7.27734 65.6321 7.79297V16H63.2904V0.294922H66.4378L74.1185 12.7451H74.1937C74.1793 12.3799 74.1614 11.9609 74.14 11.4883C74.1185 11.0156 74.097 10.5286 74.0755 10.0273C74.0612 9.51888 74.0504 9.02832 74.0433 8.55566V0.294922H76.3958V16ZM89.0471 16H86.4582V2.48633H81.8606V0.294922H93.634V2.48633H89.0471V16ZM108.853 16L107.317 11.6387H101.312L99.7756 16H97.0578L102.902 0.230469H105.759L111.592 16H108.853ZM106.651 9.42578L105.157 5.12891C105.1 4.94271 105.018 4.68132 104.91 4.34473C104.803 4.00098 104.695 3.65365 104.588 3.30273C104.481 2.94466 104.391 2.64388 104.319 2.40039C104.248 2.69401 104.158 3.02344 104.051 3.38867C103.951 3.74674 103.85 4.08333 103.75 4.39844C103.657 4.71354 103.585 4.95703 103.535 5.12891L102.031 9.42578H106.651ZM116.745 16V0.294922H119.323V16H116.745ZM139.655 16H136.486L128.795 3.46387H128.698C128.727 3.88639 128.752 4.33398 128.773 4.80664C128.802 5.2793 128.824 5.76628 128.838 6.26758C128.859 6.76888 128.877 7.27734 128.892 7.79297V16H126.55V0.294922H129.697L137.378 12.7451H137.453C137.439 12.3799 137.421 11.9609 137.399 11.4883C137.378 11.0156 137.356 10.5286 137.335 10.0273C137.321 9.51888 137.31 9.02832 137.303 8.55566V0.294922H139.655V16ZM161.101 16H158.513V2.48633H153.915V0.294922H165.688V2.48633H161.101V16ZM185.118 8.12598C185.118 9.33626 184.964 10.4391 184.656 11.4346C184.355 12.4229 183.9 13.2751 183.292 13.9912C182.683 14.7002 181.92 15.248 181.004 15.6348C180.087 16.0215 179.013 16.2148 177.781 16.2148C176.528 16.2148 175.439 16.0215 174.515 15.6348C173.599 15.248 172.836 14.6966 172.227 13.9805C171.626 13.2643 171.175 12.4085 170.874 11.4131C170.573 10.4176 170.423 9.31478 170.423 8.10449C170.423 6.486 170.688 5.0752 171.218 3.87207C171.755 2.66178 172.567 1.72363 173.656 1.05762C174.752 0.38444 176.134 0.0478516 177.803 0.0478516C179.435 0.0478516 180.792 0.380859 181.874 1.04688C182.955 1.71289 183.764 2.65104 184.302 3.86133C184.846 5.06445 185.118 6.486 185.118 8.12598ZM173.13 8.12598C173.13 9.33626 173.294 10.3854 173.624 11.2734C173.953 12.1543 174.458 12.8346 175.138 13.3145C175.826 13.7871 176.707 14.0234 177.781 14.0234C178.862 14.0234 179.743 13.7871 180.424 13.3145C181.104 12.8346 181.605 12.1543 181.928 11.2734C182.25 10.3854 182.411 9.33626 182.411 8.12598C182.411 6.28548 182.042 4.84603 181.304 3.80762C180.574 2.76204 179.407 2.23926 177.803 2.23926C176.728 2.23926 175.844 2.47559 175.149 2.94824C174.462 3.4209 173.953 4.09766 173.624 4.97852C173.294 5.85221 173.13 6.90137 173.13 8.12598ZM203.903 0.294922V10.457C203.903 11.5527 203.67 12.5339 203.205 13.4004C202.746 14.2669 202.052 14.9544 201.121 15.4629C200.19 15.9642 199.019 16.2148 197.608 16.2148C195.596 16.2148 194.063 15.6885 193.01 14.6357C191.965 13.5758 191.442 12.1686 191.442 10.4141V0.294922H194.02V10.1885C194.02 11.499 194.328 12.4658 194.944 13.0889C195.56 13.7119 196.48 14.0234 197.705 14.0234C198.55 14.0234 199.237 13.8766 199.767 13.583C200.304 13.2822 200.698 12.8454 200.949 12.2725C201.207 11.6924 201.336 10.9941 201.336 10.1777V0.294922H203.903ZM215.416 0.294922C216.769 0.294922 217.886 0.459635 218.767 0.789062C219.655 1.11849 220.314 1.61979 220.744 2.29297C221.181 2.96615 221.399 3.82194 221.399 4.86035C221.399 5.63379 221.256 6.29264 220.969 6.83691C220.683 7.38118 220.307 7.83236 219.841 8.19043C219.376 8.5485 218.878 8.83496 218.348 9.0498L222.806 16H219.895L216.103 9.70508H213.579V16H211.001V0.294922H215.416ZM215.244 2.44336H213.579V7.57812H215.362C216.558 7.57812 217.424 7.35612 217.962 6.91211C218.506 6.4681 218.778 5.81283 218.778 4.94629C218.778 4.03678 218.488 3.39225 217.908 3.0127C217.335 2.63314 216.447 2.44336 215.244 2.44336ZM237.198 11.7246C237.198 12.6556 236.969 13.4577 236.51 14.1309C236.059 14.804 235.407 15.3197 234.555 15.6777C233.71 16.0358 232.7 16.2148 231.526 16.2148C230.953 16.2148 230.405 16.1826 229.882 16.1182C229.36 16.0537 228.865 15.9606 228.4 15.8389C227.942 15.71 227.523 15.556 227.143 15.377V12.9492C227.78 13.2285 228.493 13.4827 229.281 13.7119C230.069 13.9339 230.871 14.0449 231.687 14.0449C232.353 14.0449 232.904 13.959 233.341 13.7871C233.785 13.6081 234.115 13.3574 234.33 13.0352C234.544 12.7057 234.652 12.3226 234.652 11.8857C234.652 11.4202 234.527 11.0264 234.276 10.7041C234.025 10.3818 233.646 10.0882 233.137 9.82324C232.636 9.55111 232.006 9.26107 231.247 8.95312C230.731 8.74544 230.237 8.50911 229.764 8.24414C229.299 7.97917 228.883 7.66764 228.518 7.30957C228.153 6.9515 227.863 6.52897 227.648 6.04199C227.44 5.54785 227.336 4.96777 227.336 4.30176C227.336 3.41374 227.548 2.65462 227.97 2.02441C228.4 1.39421 229.001 0.910807 229.775 0.574219C230.556 0.23763 231.465 0.0693359 232.503 0.0693359C233.327 0.0693359 234.1 0.155273 234.824 0.327148C235.554 0.499023 236.27 0.742513 236.972 1.05762L236.156 3.13086C235.511 2.86589 234.885 2.65462 234.276 2.49707C233.674 2.33952 233.058 2.26074 232.428 2.26074C231.884 2.26074 231.422 2.3431 231.042 2.50781C230.663 2.67253 230.373 2.90527 230.172 3.20605C229.979 3.49967 229.882 3.85059 229.882 4.25879C229.882 4.71712 229.993 5.10384 230.215 5.41895C230.445 5.72689 230.795 6.00977 231.268 6.26758C231.748 6.52539 232.364 6.81185 233.116 7.12695C233.982 7.48503 234.716 7.861 235.318 8.25488C235.927 8.64876 236.392 9.12142 236.714 9.67285C237.037 10.2171 237.198 10.901 237.198 11.7246ZM77.5246 38H74.968V22.2949H83.841V24.4648H77.5246V29.3633H83.4328V31.5225H77.5246V38ZM94.1935 22.2949C95.547 22.2949 96.6642 22.4596 97.545 22.7891C98.4331 23.1185 99.0919 23.6198 99.5216 24.293C99.9585 24.9661 100.177 25.8219 100.177 26.8604C100.177 27.6338 100.034 28.2926 99.7472 28.8369C99.4607 29.3812 99.0848 29.8324 98.6193 30.1904C98.1538 30.5485 97.656 30.835 97.1261 31.0498L101.584 38H98.673L94.881 31.7051H92.3566V38H89.7784V22.2949H94.1935ZM94.0216 24.4434H92.3566V29.5781H94.1398C95.3357 29.5781 96.2023 29.3561 96.7394 28.9121C97.2837 28.4681 97.5558 27.8128 97.5558 26.9463C97.5558 26.0368 97.2657 25.3923 96.6857 25.0127C96.1128 24.6331 95.2247 24.4434 94.0216 24.4434ZM116.642 38L115.106 33.6387H109.101L107.564 38H104.847L110.69 22.2305H113.548L119.381 38H116.642ZM114.439 31.4258L112.946 27.1289C112.889 26.9427 112.807 26.6813 112.699 26.3447C112.592 26.001 112.484 25.6536 112.377 25.3027C112.27 24.9447 112.18 24.6439 112.108 24.4004C112.037 24.694 111.947 25.0234 111.84 25.3887C111.74 25.7467 111.639 26.0833 111.539 26.3984C111.446 26.7135 111.374 26.957 111.324 27.1289L109.82 31.4258H114.439ZM137.64 38H134.471L126.779 25.4639H126.683C126.711 25.8864 126.736 26.334 126.758 26.8066C126.786 27.2793 126.808 27.7663 126.822 28.2676C126.844 28.7689 126.862 29.2773 126.876 29.793V38H124.534V22.2949H127.682L135.362 34.7451H135.437C135.423 34.3799 135.405 33.9609 135.384 33.4883C135.362 33.0156 135.341 32.5286 135.319 32.0273C135.305 31.5189 135.294 31.0283 135.287 30.5557V22.2949H137.64V38ZM151.537 24.2607C150.785 24.2607 150.112 24.3968 149.517 24.6689C148.93 24.9411 148.432 25.335 148.024 25.8506C147.616 26.359 147.305 26.9785 147.09 27.709C146.875 28.4323 146.767 29.2487 146.767 30.1582C146.767 31.3757 146.939 32.4248 147.283 33.3057C147.627 34.1794 148.15 34.8525 148.851 35.3252C149.553 35.7907 150.441 36.0234 151.516 36.0234C152.182 36.0234 152.83 35.959 153.46 35.8301C154.09 35.7012 154.742 35.5257 155.415 35.3037V37.4951C154.778 37.7458 154.133 37.9284 153.481 38.043C152.83 38.1576 152.078 38.2148 151.225 38.2148C149.621 38.2148 148.289 37.8818 147.229 37.2158C146.177 36.5498 145.389 35.6117 144.866 34.4014C144.35 33.1911 144.093 31.7731 144.093 30.1475C144.093 28.9587 144.257 27.8701 144.587 26.8818C144.916 25.8936 145.396 25.0413 146.026 24.3252C146.656 23.6019 147.433 23.0469 148.357 22.6602C149.288 22.2663 150.352 22.0693 151.548 22.0693C152.335 22.0693 153.109 22.1589 153.868 22.3379C154.634 22.5098 155.343 22.7568 155.995 23.0791L155.093 25.2061C154.548 24.9482 153.979 24.7262 153.385 24.54C152.79 24.3538 152.174 24.2607 151.537 24.2607ZM170.763 38H161.868V22.2949H170.763V24.4648H164.446V28.7295H170.365V30.8887H164.446V35.8193H170.763V38Z" fill="black"/>
</svg>
